HIERARCHY
ROOT root
{
	OFFSET 0.000000 0.000000 0.000000
	CHANNELS 6 Xposition Yposition Zposition Zrotation Yrotation Xrotation
	JOINT lhip
	{
		OFFSET 0.058581 -0.082280 -0.017664
		CHANNELS 3 Zrotation Yrotation Xrotation
		JOINT lknee
		{
			OFFSET 0.043451 -0.386469 0.008037
			CHANNELS 3 Zrotation Yrotation Xrotation
			JOINT lankle
			{
				OFFSET -0.014790 -0.426874 -0.037428
				CHANNELS 3 Zrotation Yrotation Xrotation
				JOINT ltoe
				{
					OFFSET 0.041054 -0.060286 0.122042
					CHANNELS 3 Zrotation Yrotation Xrotation
					End Site
					{
						OFFSET 0.000000 0.000000 0.000000
					}
				}
			}
		}
	}
	JOINT rhip
	{
		OFFSET -0.060310 -0.090513 -0.013543
		CHANNELS 3 Zrotation Yrotation Xrotation
		JOINT rknee
		{
			OFFSET -0.043257 -0.383688 -0.004843
			CHANNELS 3 Zrotation Yrotation Xrotation
			JOINT rankle
			{
				OFFSET 0.019056 -0.420046 -0.034562
				CHANNELS 3 Zrotation Yrotation Xrotation
				JOINT rtoe
				{
					OFFSET -0.034840 -0.062106 0.130323
					CHANNELS 3 Zrotation Yrotation Xrotation
					End Site
					{
						OFFSET 0.000000 0.000000 0.000000
					}
				}
			}
		}
	}
	JOINT lowerback
	{
		OFFSET 0.004439 0.124404 -0.038385
		CHANNELS 3 Zrotation Yrotation Xrotation
		JOINT upperback
		{
			OFFSET 0.004488 0.137956 0.026820
			CHANNELS 3 Zrotation Yrotation Xrotation
			JOINT chest
			{
				OFFSET -0.002265 0.056032 0.002855
				CHANNELS 3 Zrotation Yrotation Xrotation
				JOINT lowerneck
				{
					OFFSET -0.013390 0.211636 -0.033468
					CHANNELS 3 Zrotation Yrotation Xrotation
					JOINT upperneck
					{
						OFFSET 0.010113 0.088937 0.050410
						CHANNELS 3 Zrotation Yrotation Xrotation
						End Site
						{
							OFFSET 0.000000 0.000000 0.000000
						}
					}
				}
				JOINT lclavicle
				{
					OFFSET 0.071702 0.114000 -0.018898
					CHANNELS 3 Zrotation Yrotation Xrotation
					JOINT lshoulder
					{
						OFFSET 0.122921 0.045205 -0.019046
						CHANNELS 3 Zrotation Yrotation Xrotation
						JOINT lelbow
						{
							OFFSET 0.255332 -0.015649 -0.022946
							CHANNELS 3 Zrotation Yrotation Xrotation
							JOINT lwrist
							{
								OFFSET 0.265709 0.012698 -0.007375
								CHANNELS 3 Zrotation Yrotation Xrotation
								End Site
								{
									OFFSET 0.000000 0.000000 0.000000
								}
							}
						}
					}
				}
				JOINT rclavicle
				{
					OFFSET -0.082954 0.112472 -0.023707
					CHANNELS 3 Zrotation Yrotation Xrotation
					JOINT rshoulder
					{
						OFFSET -0.113228 0.046853 -0.008472
						CHANNELS 3 Zrotation Yrotation Xrotation
						JOINT relbow
						{
							OFFSET -0.260127 -0.014369 -0.031269
							CHANNELS 3 Zrotation Yrotation Xrotation
							JOINT rwrist
							{
								OFFSET -0.269108 0.006794 -0.006027
								CHANNELS 3 Zrotation Yrotation Xrotation
								End Site
								{
									OFFSET 0.000000 0.000000 0.000000
								}
							}
						}
					}
				}
			}
		}
	}
}
MOTION
Frames: 11
Frame Time: 0.033333
0.457131 0.195726 1.000928 67.548649 2.771302 106.730525 4.073489 3.470869 -17.454611 5.403592 13.928657 -0.216447 -2.736816 15.179435 -4.386169 0.000000 -0.000000 0.000000 -2.569918 6.040441 -30.889396 -3.208965 3.006052 9.966284 10.020712 3.117158 2.956616 0.000000 -0.000000 0.000000 1.430878 -5.579588 17.207604 -0.105528 -2.251615 13.069254 4.908132 -1.174539 3.887317 -7.584830 -27.830704 45.122522 19.542912 -4.169657 -18.307208 5.750432 -19.319821 -3.827508 -69.968588 -22.298466 31.110401 104.262187 -86.503213 -74.710993 4.577378 -10.656012 -28.277321 -36.772641 25.652946 -19.665291 8.632544 48.982812 -21.995304 10.933506 13.069744 2.405372 27.397628 -3.230921 -16.950954 
0.456498 0.195457 1.001007 67.896333 2.843093 106.763760 4.087247 3.818505 -17.685026 5.488980 13.406676 -0.058889 -2.972344 15.000219 -4.622406 0.000000 -0.000000 0.000000 -2.430674 5.918758 -30.956920 -3.221056 2.913651 10.099195 10.171288 3.154997 2.768605 0.000000 -0.000000 0.000000 1.273073 -5.601812 17.315813 -0.141245 -2.155972 13.021006 5.129696 -1.197488 3.906978 -8.354356 -28.275794 45.698392 19.352249 -4.124734 -18.426374 5.172730 -19.146346 -3.739339 -69.305993 -22.157365 31.014328 105.322176 -86.920580 -76.760520 4.713407 -10.714756 -27.114871 -36.544507 25.534067 -19.189349 7.448591 47.165271 -20.690619 15.939298 19.081046 6.577515 27.205634 -0.417414 -21.354658 
0.455950 0.195187 1.001078 68.332415 2.973583 106.826090 4.205181 4.050154 -17.781967 5.518204 13.194478 -0.230405 -2.910370 14.551869 -4.525608 0.000000 -0.000000 0.000000 -2.309177 5.995691 -30.994635 -3.201160 2.762345 10.147965 9.991942 2.930766 2.602842 0.000000 -0.000000 0.000000 1.117383 -5.633643 17.400240 -0.094140 -2.287017 13.008116 5.171898 -1.259423 3.779415 -9.037306 -28.622360 46.235555 19.608835 -3.912260 -18.213311 4.957348 -19.221323 -3.538055 -68.933496 -21.582317 30.643664 106.784159 -87.016508 -78.949273 4.541529 -10.793164 -26.633397 -36.928556 25.117654 -19.016461 9.612466 45.723325 -18.052717 16.976067 25.977383 8.615627 29.924102 2.215748 -25.315146 
0.455494 0.194945 1.001266 68.674890 3.135095 106.912952 4.347189 4.278025 -17.877253 5.560077 12.951168 -0.400594 -2.990398 14.308492 -4.461619 0.000000 -0.000000 0.000000 -2.144283 6.077348 -31.041270 -3.168297 2.731251 10.161588 9.906895 2.657018 2.442910 0.000000 -0.000000 0.000000 0.975817 -5.792520 17.492585 -0.099367 -2.298239 12.840857 5.228388 -1.288899 3.790516 -9.760526 -29.185865 46.443187 19.556261 -3.812538 -18.077089 4.429821 -19.173992 -3.318817 -68.264855 -20.901953 30.518215 110.073931 -87.315582 -83.197181 4.806413 -10.833756 -26.860026 -37.226177 24.839870 -18.981397 9.374770 44.016167 -16.257812 20.420520 33.070114 12.783463 31.689158 5.992186 -29.544066 
0.454733 0.194637 1.001415 68.825307 3.169926 107.020523 4.352465 4.417321 -17.990223 5.640976 13.043640 -0.517319 -3.024992 13.973319 -4.368596 0.000000 -0.000000 0.000000 -2.126015 6.240295 -31.218515 -3.173975 2.709254 10.276506 9.890444 2.474955 2.273444 0.000000 -0.000000 0.000000 0.865697 -5.688217 17.388818 -0.193854 -2.340465 12.897246 5.080544 -1.431830 3.784768 -10.311359 -29.585264 46.548187 19.728425 -3.701915 -18.250521 4.218995 -19.246438 -3.159635 -67.493720 -20.291423 30.289233 115.290193 -87.558742 -89.217649 4.850135 -11.105662 -26.835094 -37.542991 24.315246 -18.836202 9.584087 42.443805 -14.601476 22.916307 41.111821 16.994248 34.013219 9.647869 -33.287394 
0.454139 0.194035 1.001603 68.792543 3.292971 107.105345 4.386769 4.861903 -18.113943 5.797100 13.159722 -0.457043 -3.240532 13.412998 -4.410565 0.000000 -0.000000 0.000000 -1.919711 6.294100 -31.388366 -3.196760 2.788748 10.413120 9.958859 2.566304 2.065065 0.000000 -0.000000 0.000000 0.763783 -5.475390 17.361688 -0.359545 -2.222676 12.951802 5.042648 -1.372473 3.694233 -10.672465 -29.802562 46.898882 20.133106 -3.520911 -18.656891 3.849482 -19.451208 -3.199225 -66.547646 -19.694717 29.856213 126.270103 -88.029431 -101.481074 3.992048 -11.724095 -25.763909 -37.682609 24.052680 -18.440871 7.898288 40.010737 -14.425746 28.357302 49.542732 22.753188 36.036816 14.104825 -36.314875 
0.453478 0.193939 1.001860 68.789537 3.394842 107.238236 4.537377 5.235787 -18.391313 5.751502 13.546396 -0.185197 -3.332705 12.691900 -4.532685 0.000000 -0.000000 0.000000 -1.854262 6.468453 -31.528953 -3.185191 2.756602 10.382298 9.943014 2.493979 1.983567 0.000000 -0.000000 0.000000 0.776900 -5.285849 17.420774 -0.436016 -2.029152 13.075468 4.966107 -1.407212 3.344441 -11.608429 -30.431878 47.209486 20.024352 -3.448894 -19.066643 3.443412 -19.506532 -3.216103 -65.769017 -19.271833 29.588916 141.719307 -88.243422 -117.736194 3.078132 -12.234281 -24.381881 -38.068441 23.620426 -17.816260 6.871110 37.631415 -13.498205 34.020946 58.823987 28.542661 36.118656 17.983988 -41.051446 
0.452635 0.193978 1.002108 68.811334 3.390116 107.461879 4.483677 5.432537 -18.797449 5.861454 13.528482 0.115661 -3.163639 12.486732 -4.585453 0.000000 -0.000000 0.000000 -1.840526 6.432473 -31.772694 -3.081481 3.089544 10.355014 9.953496 2.213907 1.886876 0.000000 -0.000000 0.000000 0.669111 -4.941227 17.183971 -0.431346 -1.951910 13.269542 4.929932 -1.474809 3.340066 -12.636320 -30.847778 47.733529 20.111017 -3.223392 -19.507863 3.295689 -19.635760 -3.470649 -65.246217 -18.814147 29.824958 158.600891 -88.084508 -135.588543 6.617633 -10.690581 -23.064768 -38.651886 22.873019 -17.612366 6.171832 35.478059 -12.082188 44.374908 67.408830 38.962909 34.486416 21.096379 -45.449743 
0.451876 0.193624 1.002657 68.997897 3.316336 107.796142 4.540392 5.201636 -19.108351 5.840902 14.043567 0.090541 -3.005054 12.002426 -4.365544 0.000000 -0.000000 0.000000 -1.918541 6.486513 -32.119253 -3.122167 3.022324 10.422271 9.949590 2.098824 1.729747 0.000000 -0.000000 0.000000 0.345098 -4.545135 16.988356 -0.270598 -2.108457 13.527835 4.961837 -1.342149 2.957643 -13.729127 -31.294780 48.376485 20.475650 -3.129872 -19.671475 3.215632 -20.053036 -3.458731 -65.117484 -18.380098 30.095690 157.604038 -87.907208 -135.668792 6.455675 -10.704404 -22.278899 -38.947327 22.231126 -17.563796 5.844054 33.515529 -10.682422 61.854651 74.569335 59.415164 38.250434 24.313991 -45.506527 
0.451447 0.193385 1.003052 69.487601 3.283734 107.940844 4.587956 5.172889 -19.361241 5.910191 14.339450 0.232918 -3.243638 11.248023 -4.373439 0.000000 -0.000000 0.000000 -2.042490 6.707284 -32.096993 -3.248279 2.537366 10.345133 9.904431 2.005652 1.538613 0.000000 -0.000000 0.000000 0.331006 -4.619112 17.061796 -0.234394 -2.208465 13.572772 4.955964 -1.488252 2.741815 -14.477914 -31.804766 48.578387 20.177905 -3.291799 -19.695040 2.938931 -19.977089 -3.398381 -65.009976 -18.119664 29.766996 155.658081 -87.642684 -134.350379 3.783443 -12.186284 -20.481125 -39.398963 21.543131 -17.504271 5.254588 32.374421 -10.194142 90.974275 78.290609 88.922096 40.152509 28.232155 -47.222012 
0.450698 0.192982 1.003336 69.810960 3.403156 108.271444 4.805618 5.086402 -19.729279 5.994834 14.845864 0.265902 -3.325445 10.539475 -4.221415 0.000000 -0.000000 0.000000 -2.015249 6.982053 -32.396609 -3.347234 2.163194 10.389625 9.827473 1.946902 1.484810 0.000000 -0.000000 0.000000 0.328563 -4.562049 16.706472 -0.122678 -2.350926 14.106052 4.953343 -1.538799 2.458926 -14.750552 -32.029902 48.505235 20.295653 -3.102290 -20.180528 2.977361 -19.754385 -3.733025 -65.317703 -17.696936 29.884696 155.531178 -87.491221 -134.904512 2.751520 -12.644368 -19.575180 -39.897378 20.845315 -17.627513 4.664792 31.545020 -9.624853 125.008942 77.858894 123.923972 41.185775 30.546974 -47.595237 
